<mxfile host="app.diagrams.net" modified="2021-12-02T06:53:27.718Z" agent="5.0 (Macintosh)" etag="xhr6TQLDTQeLRQ9d8aJV" version="15.8.8" type="github">
  <diagram id="JmewPo_cl4jpixZGb1z0" name="Page-1">
    <mxGraphModel dx="878" dy="587" grid="1" gridSize="10" guides="1" tooltips="1" connect="1" arrows="1" fold="1" page="1" pageScale="1" pageWidth="827" pageHeight="1169" math="0" shadow="0">
      <root>
        <mxCell id="0" />
        <mxCell id="1" parent="0" />
        <mxCell id="bWlAFu3hXjOWGStaIyQR-8" value="&lt;div&gt;AQS&lt;/div&gt;" style="shape=umlLifeline;perimeter=lifelinePerimeter;whiteSpace=wrap;html=1;container=1;collapsible=0;recursiveResize=0;outlineConnect=0;" vertex="1" parent="1">
          <mxGeometry x="420" y="160" width="100" height="440" as="geometry" />
        </mxCell>
        <mxCell id="bWlAFu3hXjOWGStaIyQR-9" value="&lt;div style=&quot;color: rgb(0 , 0 , 0) ; background-color: rgb(255 , 255 , 255) ; font-family: &amp;#34;menlo&amp;#34; , &amp;#34;monaco&amp;#34; , &amp;#34;courier new&amp;#34; , monospace ; font-weight: normal ; font-size: 12px ; line-height: 18px&quot;&gt;&lt;div&gt;&lt;span style=&quot;color: #800000&quot;&gt;acquire()&lt;/span&gt;&lt;/div&gt;&lt;/div&gt;" style="html=1;points=[];perimeter=orthogonalPerimeter;fillColor=#808080;" vertex="1" parent="bWlAFu3hXjOWGStaIyQR-8">
          <mxGeometry x="45" y="150" width="10" height="80" as="geometry" />
        </mxCell>
        <mxCell id="bWlAFu3hXjOWGStaIyQR-21" value="&lt;div style=&quot;color: rgb(0 , 0 , 0) ; background-color: rgb(255 , 255 , 255) ; font-family: &amp;#34;menlo&amp;#34; , &amp;#34;monaco&amp;#34; , &amp;#34;courier new&amp;#34; , monospace ; font-weight: normal ; font-size: 12px ; line-height: 18px&quot;&gt;&lt;div&gt;&lt;span style=&quot;color: #000000&quot;&gt;addWaiter&lt;/span&gt;&lt;span style=&quot;color: #800000&quot;&gt;&lt;/span&gt;&lt;span style=&quot;color: #800000&quot;&gt;&lt;/span&gt;&lt;span style=&quot;color: #800000&quot;&gt;()&lt;/span&gt;&lt;/div&gt;&lt;/div&gt;" style="html=1;points=[];perimeter=orthogonalPerimeter;fillColor=#808080;" vertex="1" parent="bWlAFu3hXjOWGStaIyQR-8">
          <mxGeometry x="45" y="280" width="10" height="80" as="geometry" />
        </mxCell>
        <mxCell id="bWlAFu3hXjOWGStaIyQR-10" value="ReentrantLock" style="shape=umlLifeline;perimeter=lifelinePerimeter;whiteSpace=wrap;html=1;container=1;collapsible=0;recursiveResize=0;outlineConnect=0;" vertex="1" parent="1">
          <mxGeometry x="300" y="160" width="100" height="440" as="geometry" />
        </mxCell>
        <mxCell id="bWlAFu3hXjOWGStaIyQR-11" value="&lt;div style=&quot;color: rgb(0 , 0 , 0) ; background-color: rgb(255 , 255 , 255) ; font-family: &amp;#34;menlo&amp;#34; , &amp;#34;monaco&amp;#34; , &amp;#34;courier new&amp;#34; , monospace ; font-weight: normal ; font-size: 12px ; line-height: 18px&quot;&gt;&lt;div&gt;&lt;span style=&quot;color: #800000&quot;&gt;compareAndSetState(0, 1)&lt;/span&gt;&lt;/div&gt;&lt;/div&gt;" style="html=1;points=[];perimeter=orthogonalPerimeter;" vertex="1" parent="bWlAFu3hXjOWGStaIyQR-10">
          <mxGeometry x="45" y="60" width="10" height="70" as="geometry" />
        </mxCell>
        <mxCell id="bWlAFu3hXjOWGStaIyQR-12" value="&lt;div style=&quot;color: rgb(0 , 0 , 0) ; background-color: rgb(255 , 255 , 255) ; font-family: &amp;#34;menlo&amp;#34; , &amp;#34;monaco&amp;#34; , &amp;#34;courier new&amp;#34; , monospace ; font-weight: normal ; font-size: 12px ; line-height: 18px&quot;&gt;&lt;div&gt;&lt;div style=&quot;color: rgb(0 , 0 , 0) ; background-color: rgb(255 , 255 , 255) ; font-family: &amp;#34;menlo&amp;#34; , &amp;#34;monaco&amp;#34; , &amp;#34;courier new&amp;#34; , monospace ; font-weight: normal ; font-size: 12px ; line-height: 18px&quot;&gt;&lt;div&gt;&lt;span style=&quot;color: #000000&quot;&gt;tryAcquire()&lt;/span&gt;&lt;/div&gt;&lt;/div&gt;&lt;/div&gt;&lt;/div&gt;" style="html=1;points=[];perimeter=orthogonalPerimeter;" vertex="1" parent="bWlAFu3hXjOWGStaIyQR-10">
          <mxGeometry x="45" y="200" width="10" height="70" as="geometry" />
        </mxCell>
        <mxCell id="bWlAFu3hXjOWGStaIyQR-16" value="" style="edgeStyle=orthogonalEdgeStyle;rounded=0;orthogonalLoop=1;jettySize=auto;html=1;" edge="1" parent="1" source="bWlAFu3hXjOWGStaIyQR-11" target="bWlAFu3hXjOWGStaIyQR-9">
          <mxGeometry relative="1" as="geometry" />
        </mxCell>
        <mxCell id="bWlAFu3hXjOWGStaIyQR-17" value="" style="edgeStyle=orthogonalEdgeStyle;rounded=0;orthogonalLoop=1;jettySize=auto;html=1;" edge="1" parent="1" source="bWlAFu3hXjOWGStaIyQR-9" target="bWlAFu3hXjOWGStaIyQR-12">
          <mxGeometry relative="1" as="geometry" />
        </mxCell>
        <mxCell id="bWlAFu3hXjOWGStaIyQR-22" value="&lt;font style=&quot;font-size: 20px&quot;&gt;&lt;b&gt;ReentrantLock#lock()&lt;/b&gt;&lt;/font&gt;" style="text;html=1;align=center;verticalAlign=middle;resizable=0;points=[];autosize=1;strokeColor=none;fillColor=none;" vertex="1" parent="1">
          <mxGeometry x="304" y="120" width="220" height="20" as="geometry" />
        </mxCell>
      </root>
    </mxGraphModel>
  </diagram>
</mxfile>
